<svg width="251" height="348" viewBox="0 0 251 348" fill="none" xmlns="http://www.w3.org/2000/svg">
<path d="M148.6 10C148.1 10.3 147.5 10.6 147 11C133 23.9 121.5 34.5 112.7 42.7C109.6 45.5 107.6 49 106.9 53.1L104.3 65.4C69.1 94 46.6 137.6 46.6 186.3C46.6 212.4 53.1 237.1 64.5 258.8L56.7 297C56.5 297.9 56.6 298.8 57 299.6C32.5 268.4 17.8 229 17.8 186.3C17.8 103.3 73 32.9 148.6 10Z" fill="white"/>
<path d="M191.4 14.9001L188 31.5001L159.6 169.2C159.4 168.7 159.3 168.1 159.5 167.3L177.4 79.5001H169.2C163 79.5001 157.5 81.4001 152.8 85.3001C149.6 88.0001 147.2 91.2001 145.5 94.8001L148.8 78.7001L150 73.7001L157.4 37.3001L159.3 28.0001C159.3 27.5001 159.1 27.2001 158.7 27.0001C158.3 26.9001 158 26.9001 157.7 27.2001L142 42.0001C141.5 42.5001 141 43.0001 140.5 43.6001C138.4 46.1001 137 48.9001 136.1 52.1001L130.3 78.8001C126.1 98.9001 121.6 121.5 116.7 146.5H134.5L133.5 151.5H115.5C99.4 229.8 89.9 276.1 86.9 290.6C86.3 293.6 85.9 295.3 85.9 295.5C85.6 297.8 86.4 299.7 88.2 301.3C88.5 301.6 88.6 301.8 88.6 302.1C88.6 302.4 88.5 302.6 88.4 302.7C88.3 302.8 88.1 302.9 87.8 302.9L84.7 303.3L72.6 302.9H61.7C60.5 302.9 59.5 302.6 58.6 301.9C58.3 301.7 58 301.4 57.8 301.2C57.4 300.7 57.1 300.3 56.9 299.8C56.6 299 56.5 298.1 56.6 297.2L64.5 258.9L101 81.6001V80.8001L104.2 65.7001L106.8 53.4001C107.6 49.3001 109.5 45.8001 112.6 43.0001C121.6 34.5001 133 23.9001 147 11.0001C147.5 10.6001 148 10.2001 148.6 10.0001C149.5 9.5001 150.4 9.3001 151.4 9.2001C151.7 9.2001 152.1 9.1001 152.4 9.1001H186.7C188.3 9.1001 189.6 9.7001 190.6 10.8001C191.7 12.0001 191.9 13.3001 191.4 14.9001Z" fill="white"/>
<path d="M159.6 169.2L157.8 178C157.5 178.3 157.3 178.8 157.2 179.4L139.7 263C139.4 264.5 138.5 265.3 137 265.3H110.5L134.2 151.5H133.5L134.5 146.5H135L145.7 94.9001C147.3 91.2001 149.7 88.1001 153 85.4001C157.7 81.5001 163.1 79.6001 169.4 79.6001H177.6L159.7 167.4C159.4 168.1 159.4 168.7 159.6 169.2Z" fill="white"/>
<path d="M240.5 52.4002C237.1 57.1002 234 62.3002 231.2 68.3002C228.3 74.0002 225.9 81.0002 223.8 89.2002C223.5 89.5002 223.4 89.7002 223.4 90.0002L220.3 105.9L211 150.4L208.7 162.8C207.7 168 204.5 170.8 199.4 171.3L174.9 174.8L194.8 178.3C197.7 179.1 199.9 180.7 201.4 183.1C203 185.6 203.5 188.2 203 191C190.5 251.6 184 283.1 183.5 285.4C176 312.2 162.6 328.4 143.4 333.8C140.8 334.6 137.9 334.8 134.8 334.6C133.5 334.3 133.2 333.7 134 332.7C137.6 328 140.9 322.9 143.7 317.2C146.6 311.5 149.2 304.4 151.5 295.9L174.1 187.5C174.6 185.4 174.2 183.5 172.9 181.7C171.6 179.9 169.9 178.9 167.8 178.6L160.4 177.4C159.3 177.2 158.4 177.4 157.9 178L159.7 169.2C159.8 169.4 160 169.7 160.2 169.9C160.8 170.5 161.7 170.9 162.7 170.9L170.5 169.7C175.4 169.2 178.3 166.6 179.1 162C187.2 123.3 191.4 102.8 191.9 100.5C192.2 99.7002 192.4 99.0002 192.7 98.2002V97.8002C200 72.5002 212.8 57.0002 231.3 51.4002C233.9 50.6002 236.9 50.4002 240.3 50.6002C241.2 50.5002 241.3 51.1002 240.5 52.4002Z" fill="white"/>
</svg>
