
<svg version="1.1" id="Layer_1" xmlns="http://www.w3.org/2000/svg" xmlns:xlink="http://www.w3.org/1999/xlink" x="0px" y="0px"
	 viewBox="0 0 250.4 347.5" style="enable-background:new 0 0 250.4 347.5;" xml:space="preserve">
<g>
	<path d="M148.6,10c-0.5,0.3-1.1,0.6-1.6,1c-14,12.9-25.5,23.5-34.3,31.7c-3.1,2.8-5.1,6.3-5.8,10.4l-2.6,12.3
		C69.1,94,46.6,137.6,46.6,186.3c0,26.1,6.5,50.8,17.9,72.5L56.7,297c-0.2,0.9-0.1,1.8,0.3,2.6C32.5,268.4,17.8,229,17.8,186.3
		C17.8,103.3,73,32.9,148.6,10z"/>
	<g>
		<path d="M191.4,14.9L188,31.5l-28.4,137.7c-0.2-0.5-0.3-1.1-0.1-1.9l17.9-87.8h-8.2c-6.2,0-11.7,1.9-16.4,5.8
			c-3.2,2.7-5.6,5.9-7.3,9.5l3.3-16.1l1.2-5l7.4-36.4l1.9-9.3c0-0.5-0.2-0.8-0.6-1c-0.4-0.1-0.7-0.1-1,0.2L142,42
			c-0.5,0.5-1,1-1.5,1.6c-2.1,2.5-3.5,5.3-4.4,8.5l-5.8,26.7c-4.2,20.1-8.7,42.7-13.6,67.7h17.8l-1,5h-18
			c-16.1,78.3-25.6,124.6-28.6,139.1c-0.6,3-1,4.7-1,4.9c-0.3,2.3,0.5,4.2,2.3,5.8c0.3,0.3,0.4,0.5,0.4,0.8c0,0.3-0.1,0.5-0.2,0.6
			c-0.1,0.1-0.3,0.2-0.6,0.2l-3.1,0.4l-12.1-0.4H61.7c-1.2,0-2.2-0.3-3.1-1c0,0,0,0,0,0c-0.3-0.2-0.6-0.5-0.8-0.7
			c-0.4-0.5-0.7-0.9-0.9-1.4c-0.3-0.8-0.4-1.7-0.3-2.6l7.9-38.3l36.5-177.3v-0.8l3.2-15.1l2.6-12.3c0.8-4.1,2.7-7.6,5.8-10.4
			C121.6,34.5,133,23.9,147,11c0.5-0.4,1-0.8,1.6-1c0.9-0.5,1.8-0.7,2.8-0.8c0.3,0,0.7-0.1,1-0.1h34.3c1.6,0,2.9,0.6,3.9,1.7
			C191.7,12,191.9,13.3,191.4,14.9z"/>
		<path d="M159.6,169.2l-1.8,8.8c-0.3,0.3-0.5,0.8-0.6,1.4l-17.5,83.6c-0.3,1.5-1.2,2.3-2.7,2.3h-26.5l23.7-113.8h-0.7l1-5h0.5
			l10.7-51.6c1.6-3.7,4-6.8,7.3-9.5c4.7-3.9,10.1-5.8,16.4-5.8h8.2l-17.9,87.8C159.4,168.1,159.4,168.7,159.6,169.2z"/>
		<path d="M240.5,52.4c-3.4,4.7-6.5,9.9-9.3,15.9c-2.9,5.7-5.3,12.7-7.4,20.9c-0.3,0.3-0.4,0.5-0.4,0.8l-3.1,15.9l-9.3,44.5
			l-2.3,12.4c-1,5.2-4.2,8-9.3,8.5l-24.5,3.5l19.9,3.5c2.9,0.8,5.1,2.4,6.6,4.8c1.6,2.5,2.1,5.1,1.6,7.9
			c-12.5,60.6-19,92.1-19.5,94.4c-7.5,26.8-20.9,43-40.1,48.4c-2.6,0.8-5.5,1-8.6,0.8c-1.3-0.3-1.6-0.9-0.8-1.9
			c3.6-4.7,6.9-9.8,9.7-15.5c2.9-5.7,5.5-12.8,7.8-21.3l22.6-108.4c0.5-2.1,0.1-4-1.2-5.8c-1.3-1.8-3-2.8-5.1-3.1l-7.4-1.2
			c-1.1-0.2-2,0-2.5,0.6l1.8-8.8c0.1,0.2,0.3,0.5,0.5,0.7c0.6,0.6,1.5,1,2.5,1l7.8-1.2c4.9-0.5,7.8-3.1,8.6-7.7
			c8.1-38.7,12.3-59.2,12.8-61.5c0.3-0.8,0.5-1.5,0.8-2.3v-0.4c7.3-25.3,20.1-40.8,38.6-46.4c2.6-0.8,5.6-1,9-0.8
			C241.2,50.5,241.3,51.1,240.5,52.4z"/>
	</g>
</g>
</svg>
